<svg xmlns="http://www.w3.org/2000/svg" width="900" height="362" viewBox="0 0 900 362">
<rect width="100%" height="100%" fill="white"/>
<text x="75" y="34" font-family="Liberation Sans,Arial" font-size="18" font-weight="bold">Biological network analysis</text>
<line x1="450.0" x2="450.0" y1="55" y2="332" stroke="#666666" stroke-width="1"/>
<text x="75" y="86" font-family="Liberation Sans,Arial" font-size="11">NFKB1</text>
<rect x="450.0" y="72" width="355.0" height="18" fill="#D62728" opacity="0.88"/>
<text x="810.0" y="86" font-family="Liberation Sans,Arial" font-size="10">2.33</text>
<text x="75" y="120" font-family="Liberation Sans,Arial" font-size="11">CXCL8</text>
<rect x="450.0" y="106" width="294.0557939914163" height="18" fill="#D62728" opacity="0.88"/>
<text x="749.0557939914163" y="120" font-family="Liberation Sans,Arial" font-size="10">1.93</text>
<text x="75" y="154" font-family="Liberation Sans,Arial" font-size="11">IL17RA</text>
<rect x="450.0" y="140" width="263.58369098712444" height="18" fill="#D62728" opacity="0.88"/>
<text x="718.5836909871244" y="154" font-family="Liberation Sans,Arial" font-size="10">1.73</text>
<text x="75" y="188" font-family="Liberation Sans,Arial" font-size="11">TRAF3IP2</text>
<rect x="450.0" y="174" width="240.7296137339056" height="18" fill="#D62728" opacity="0.88"/>
<text x="695.7296137339056" y="188" font-family="Liberation Sans,Arial" font-size="10">1.58</text>
<text x="75" y="222" font-family="Liberation Sans,Arial" font-size="11">RELA</text>
<rect x="450.0" y="208" width="231.58798283261802" height="18" fill="#D62728" opacity="0.88"/>
<text x="686.5879828326181" y="222" font-family="Liberation Sans,Arial" font-size="10">1.52</text>
<text x="75" y="256" font-family="Liberation Sans,Arial" font-size="11">IL17A</text>
<rect x="450.0" y="242" width="216.3519313304721" height="18" fill="#D62728" opacity="0.88"/>
<text x="671.3519313304721" y="256" font-family="Liberation Sans,Arial" font-size="10">1.42</text>
<text x="75" y="290" font-family="Liberation Sans,Arial" font-size="11">CXCR1</text>
<rect x="450.0" y="276" width="111.22317596566523" height="18" fill="#D62728" opacity="0.88"/>
<text x="566.2231759656652" y="290" font-family="Liberation Sans,Arial" font-size="10">0.73</text>
<text x="75" y="324" font-family="Liberation Sans,Arial" font-size="11">TNF</text>
<rect x="450.0" y="310" width="97.5107296137339" height="18" fill="#D62728" opacity="0.88"/>
<text x="552.5107296137339" y="324" font-family="Liberation Sans,Arial" font-size="10">0.64</text>
</svg>